<svg xmlns="http://www.w3.org/2000/svg" width="11" height="11" viewBox="0 0 11 11"><path d="M0-6.25v1.5a.723.723,0,0,1-.219.531A.723.723,0,0,1-.75-4H-4V-.75a.723.723,0,0,1-.219.531A.723.723,0,0,1-4.75,0h-1.5a.723.723,0,0,1-.531-.219A.723.723,0,0,1-7-.75V-4h-3.25a.723.723,0,0,1-.531-.219A.723.723,0,0,1-11-4.75v-1.5a.723.723,0,0,1,.219-.531A.723.723,0,0,1-10.25-7H-7v-3.25a.723.723,0,0,1,.219-.531A.723.723,0,0,1-6.25-11h1.5a.723.723,0,0,1,.531.219A.723.723,0,0,1-4-10.25V-7H-.75a.723.723,0,0,1,.531.219A.723.723,0,0,1,0-6.25Z" transform="translate(11 11)" fill="#fff"/></svg>