<svg xmlns="http://www.w3.org/2000/svg" width="33.595" height="33.595" viewBox="0 0 33.595 33.595"><path d="M-.4-.283A1.311,1.311,0,0,1,0,.68a1.311,1.311,0,0,1-.4.963L-1.982,3.229a1.311,1.311,0,0,1-.963.4,1.311,1.311,0,0,1-.963-.4L-9.572-2.436a1.311,1.311,0,0,1-.4-.963V-4.3a11.415,11.415,0,0,1-7.25,2.492A11.442,11.442,0,0,1-23.138-3.4a11.9,11.9,0,0,1-4.276-4.276A11.442,11.442,0,0,1-29-13.594a11.442,11.442,0,0,1,1.586-5.919,11.9,11.9,0,0,1,4.276-4.276,11.442,11.442,0,0,1,5.919-1.586A11.442,11.442,0,0,1-11.3-23.789a11.9,11.9,0,0,1,4.276,4.276,11.442,11.442,0,0,1,1.586,5.919A11.415,11.415,0,0,1-7.93-6.344h.906a1.311,1.311,0,0,1,.963.4ZM-17.219-6.344a7.189,7.189,0,0,0,3.653-.963A7.053,7.053,0,0,0-10.932-9.94a7.189,7.189,0,0,0,.963-3.653,7.189,7.189,0,0,0-.963-3.653,7.053,7.053,0,0,0-2.634-2.634,7.189,7.189,0,0,0-3.653-.963,7.189,7.189,0,0,0-3.653.963,7.053,7.053,0,0,0-2.634,2.634,7.189,7.189,0,0,0-.963,3.653,7.189,7.189,0,0,0,.963,3.653,7.053,7.053,0,0,0,2.634,2.634A7.189,7.189,0,0,0-17.219-6.344Z" transform="translate(8.606 32.966) rotate(80)" fill="#4d5a68"/></svg>